<svg width="669" height="439" viewBox="0 0 669 439" fill="none" xmlns="http://www.w3.org/2000/svg">
<path d="M426.32 329.105V434.93H133.454C100.086 434.93 72.9373 411.193 72.9373 382.017C72.9373 352.842 100.086 329.105 133.454 329.105H426.32Z" fill="#F2F2F2"/>
<path d="M433.514 434.116C433.514 435.195 433.04 436.23 432.197 436.993C431.354 437.757 430.21 438.186 429.018 438.186H128.238C111.902 438.186 96.2349 432.311 84.6837 421.854C73.1324 411.396 66.643 397.213 66.643 382.424C66.643 367.635 73.1324 353.452 84.6837 342.995C96.2349 332.537 111.902 326.663 128.238 326.663H429.018C430.21 326.663 431.354 327.091 432.197 327.855C433.04 328.618 433.514 329.653 433.514 330.733C433.514 331.812 433.04 332.848 432.197 333.611C431.354 334.374 430.21 334.803 429.018 334.803H128.238C114.287 334.803 100.907 339.82 91.0419 348.751C81.177 357.682 75.6349 369.794 75.6349 382.424C75.6349 395.054 81.177 407.167 91.0419 416.098C100.907 425.028 114.287 430.046 128.238 430.046H429.018C430.21 430.046 431.354 430.475 432.197 431.238C433.04 432.001 433.514 433.036 433.514 434.116Z" fill="white"/>
<path d="M426.32 353.526H111.603C111.364 353.526 111.135 353.44 110.967 353.287C110.798 353.135 110.703 352.928 110.703 352.712C110.703 352.496 110.798 352.289 110.967 352.136C111.135 351.984 111.364 351.898 111.603 351.898H426.32C426.559 351.898 426.788 351.984 426.956 352.136C427.125 352.289 427.22 352.496 427.22 352.712C427.22 352.928 427.125 353.135 426.956 353.287C426.788 353.44 426.559 353.526 426.32 353.526Z" fill="#CCCCCC"/>
<path d="M426.32 373.063H111.603C111.364 373.063 111.135 372.977 110.967 372.824C110.798 372.672 110.703 372.465 110.703 372.249C110.703 372.033 110.798 371.826 110.967 371.673C111.135 371.521 111.364 371.435 111.603 371.435H426.32C426.559 371.435 426.788 371.521 426.956 371.673C427.125 371.826 427.22 372.033 427.22 372.249C427.22 372.465 427.125 372.672 426.956 372.824C426.788 372.977 426.559 373.063 426.32 373.063Z" fill="#CCCCCC"/>
<path d="M426.32 392.6H111.603C111.364 392.6 111.135 392.514 110.967 392.361C110.798 392.209 110.703 392.002 110.703 391.786C110.703 391.57 110.798 391.363 110.967 391.21C111.135 391.057 111.364 390.972 111.603 390.972H426.32C426.559 390.972 426.788 391.057 426.956 391.21C427.125 391.363 427.22 391.57 427.22 391.786C427.22 392.002 427.125 392.209 426.956 392.361C426.788 392.514 426.559 392.6 426.32 392.6Z" fill="#CCCCCC"/>
<path d="M426.32 412.137H111.603C111.364 412.137 111.135 412.051 110.967 411.898C110.798 411.746 110.703 411.539 110.703 411.323C110.703 411.107 110.798 410.9 110.967 410.747C111.135 410.594 111.364 410.509 111.603 410.509H426.32C426.559 410.509 426.788 410.594 426.956 410.747C427.125 410.9 427.22 411.107 427.22 411.323C427.22 411.539 427.125 411.746 426.956 411.898C426.788 412.051 426.559 412.137 426.32 412.137Z" fill="#CCCCCC"/>
<path d="M652.663 349.025L579.321 431.429L351.271 265.08C325.288 246.127 320.599 212.222 340.819 189.504C361.039 166.786 398.631 163.723 424.614 182.676L652.663 349.025Z" fill="#F2F2F2"/>
<path d="M585.486 434.881C584.738 435.721 583.652 436.258 582.466 436.373C581.281 436.489 580.093 436.174 579.164 435.497L344.953 264.652C332.232 255.373 324.104 241.9 322.357 227.196C320.61 212.492 325.387 197.762 335.636 186.246C345.886 174.73 360.768 167.372 377.011 165.79C393.253 164.208 409.524 168.532 422.245 177.811L656.456 348.656C656.916 348.991 657.299 349.405 657.582 349.874C657.866 350.343 658.044 350.858 658.107 351.39C658.171 351.922 658.118 352.459 657.951 352.972C657.785 353.485 657.509 353.964 657.138 354.38C656.768 354.797 656.31 355.143 655.792 355.399C655.273 355.655 654.704 355.816 654.117 355.873C653.53 355.93 652.936 355.882 652.369 355.731C651.802 355.581 651.274 355.33 650.814 354.994L416.603 184.15C411.224 180.223 405.044 177.295 398.414 175.531C391.785 173.767 384.837 173.203 377.967 173.871C371.096 174.539 364.439 176.425 358.374 179.423C352.31 182.421 346.957 186.471 342.622 191.341C338.287 196.212 335.054 201.809 333.108 207.811C331.162 213.813 330.542 220.103 331.283 226.323C332.023 232.542 334.11 238.568 337.423 244.057C340.737 249.546 345.212 254.391 350.595 258.314L584.806 429.158C585.734 429.835 586.327 430.819 586.455 431.892C586.582 432.965 586.234 434.04 585.486 434.881Z" fill="#CCCCCC"/>
<path d="M635.738 368.041L390.673 189.28C390.581 189.213 390.505 189.131 390.448 189.037C390.392 188.943 390.356 188.84 390.344 188.734C390.331 188.627 390.342 188.52 390.375 188.417C390.408 188.315 390.463 188.219 390.537 188.136C390.611 188.053 390.703 187.983 390.807 187.932C390.91 187.881 391.024 187.849 391.141 187.837C391.259 187.826 391.378 187.835 391.491 187.865C391.604 187.896 391.71 187.946 391.802 188.013L636.866 366.774C636.958 366.841 637.035 366.923 637.092 367.017C637.148 367.111 637.184 367.214 637.197 367.32C637.21 367.427 637.199 367.534 637.166 367.637C637.133 367.74 637.077 367.836 637.003 367.919C636.929 368.002 636.837 368.071 636.734 368.123C636.63 368.174 636.516 368.206 636.399 368.217C636.281 368.229 636.162 368.219 636.049 368.189C635.935 368.159 635.83 368.108 635.738 368.041Z" fill="#CCCCCC"/>
<path d="M622.198 383.254L377.133 204.493C376.948 204.358 376.83 204.161 376.804 203.947C376.779 203.732 376.849 203.517 376.998 203.349C377.148 203.181 377.365 203.074 377.602 203.051C377.838 203.028 378.076 203.091 378.262 203.226L623.326 381.987C623.418 382.054 623.495 382.136 623.552 382.23C623.608 382.324 623.644 382.427 623.657 382.534C623.669 382.64 623.659 382.747 623.626 382.85C623.592 382.953 623.537 383.049 623.463 383.132C623.389 383.215 623.297 383.284 623.194 383.336C623.09 383.387 622.976 383.419 622.858 383.431C622.741 383.442 622.622 383.432 622.509 383.402C622.395 383.372 622.29 383.322 622.198 383.254Z" fill="#CCCCCC"/>
<path d="M608.658 398.467L363.593 219.706C363.407 219.571 363.289 219.374 363.263 219.16C363.238 218.945 363.307 218.73 363.457 218.562C363.607 218.394 363.824 218.286 364.061 218.263C364.298 218.24 364.536 218.303 364.721 218.439L609.786 397.2C609.878 397.267 609.954 397.35 610.011 397.443C610.068 397.537 610.103 397.64 610.116 397.746C610.128 397.853 610.118 397.96 610.085 398.063C610.051 398.165 609.996 398.261 609.922 398.344C609.848 398.427 609.756 398.497 609.653 398.548C609.549 398.599 609.435 398.631 609.318 398.643C609.201 398.654 609.082 398.645 608.968 398.615C608.855 398.584 608.75 398.534 608.658 398.467Z" fill="#CCCCCC"/>
<path d="M595.117 413.68L350.053 234.92C349.961 234.852 349.885 234.77 349.828 234.676C349.771 234.582 349.736 234.479 349.723 234.373C349.71 234.266 349.721 234.159 349.754 234.056C349.788 233.954 349.843 233.858 349.917 233.775C349.991 233.692 350.083 233.622 350.186 233.571C350.29 233.52 350.404 233.488 350.521 233.476C350.638 233.465 350.757 233.474 350.87 233.505C350.984 233.535 351.089 233.585 351.181 233.652L596.246 412.413C596.338 412.48 596.414 412.562 596.471 412.656C596.528 412.75 596.564 412.853 596.576 412.96C596.589 413.066 596.579 413.174 596.545 413.276C596.512 413.379 596.457 413.475 596.383 413.558C596.308 413.641 596.217 413.71 596.113 413.762C596.009 413.813 595.896 413.845 595.778 413.857C595.661 413.868 595.542 413.858 595.428 413.828C595.315 413.798 595.209 413.748 595.117 413.68Z" fill="#CCCCCC"/>
<path d="M304 317.982L293.721 317.981L288.832 282.085L304.004 282.087L304 317.982Z" fill="#FFB8B8"/>
<path d="M286.377 315.322H306.203V326.622H273.895C273.895 325.138 274.218 323.669 274.845 322.298C275.472 320.927 276.392 319.681 277.551 318.632C278.71 317.582 280.086 316.75 281.6 316.182C283.115 315.614 284.738 315.322 286.377 315.322Z" fill="#2F2E41"/>
<path d="M198.979 317.982L188.699 317.981L183.81 282.085L198.983 282.087L198.979 317.982Z" fill="#FFB8B8"/>
<path d="M181.356 315.322H201.182V326.622H168.874C168.874 325.138 169.197 323.669 169.824 322.298C170.451 320.927 171.371 319.681 172.53 318.632C173.689 317.582 175.065 316.75 176.58 316.182C178.094 315.614 179.717 315.322 181.356 315.322Z" fill="#2F2E41"/>
<path d="M233.315 51.7184V47.6482C233.315 40.6855 236.37 34.008 241.808 29.0847C247.246 24.1613 254.622 21.3954 262.313 21.3954C270.004 21.3954 277.381 24.1613 282.819 29.0847C288.257 34.008 291.313 40.6855 291.313 47.6482V51.7184C291.313 56.738 289.11 61.552 285.189 65.1014C281.269 68.6508 275.951 70.6448 270.406 70.6448H254.221C251.475 70.6448 248.757 70.1553 246.22 69.2041C243.684 68.253 241.379 66.8589 239.438 65.1014C237.496 63.3439 235.957 61.2575 234.906 58.9612C233.855 56.665 233.315 54.2039 233.315 51.7184Z" fill="#2F2E41"/>
<path d="M262.314 72.0453C274.511 72.0453 284.399 63.0939 284.399 52.0517C284.399 41.0095 274.511 32.0581 262.314 32.0581C250.116 32.0581 240.228 41.0095 240.228 52.0517C240.228 63.0939 250.116 72.0453 262.314 72.0453Z" fill="#FFB8B8"/>
<path d="M142.185 120.767C143.081 120.001 144.152 119.422 145.322 119.071C146.492 118.72 147.733 118.606 148.957 118.736C150.181 118.866 151.359 119.238 152.408 119.825C153.456 120.412 154.35 121.199 155.025 122.133L173.958 118.891L178.94 128.826L152.133 133.064C150.326 133.988 148.207 134.279 146.178 133.883C144.15 133.488 142.352 132.432 141.126 130.916C139.899 129.4 139.33 127.53 139.525 125.659C139.72 123.789 140.666 122.048 142.185 120.767Z" fill="#FFB8B8"/>
<path d="M245.343 84.9763L214.298 103.491L161.912 118.635C161.218 118.837 160.622 119.251 160.227 119.805C159.831 120.36 159.66 121.022 159.743 121.678L160.886 130.589C160.937 130.983 161.078 131.364 161.301 131.706C161.523 132.048 161.822 132.344 162.179 132.576C162.535 132.807 162.941 132.968 163.37 133.049C163.8 133.13 164.243 133.129 164.672 133.046L213.974 123.479C216.36 123.019 218.617 122.119 220.603 120.837L255.481 98.372C256.745 97.5532 257.754 96.4521 258.409 95.1758C259.064 93.8995 259.344 92.4914 259.22 91.0884C259.092 89.6836 258.562 88.3331 257.683 87.1697C256.804 86.0064 255.605 85.0704 254.205 84.4537C252.805 83.837 251.251 83.5608 249.697 83.6525C248.144 83.7441 246.643 84.2003 245.343 84.9763Z" fill="#CCCCCC"/>
<path d="M293.904 307.795C293.115 307.795 292.343 307.588 291.683 307.197C291.022 306.807 290.501 306.25 290.184 305.596L243.057 200.178C242.947 199.949 242.762 199.756 242.528 199.626C242.293 199.495 242.02 199.432 241.745 199.446C241.47 199.46 241.206 199.55 240.989 199.704C240.772 199.858 240.613 200.068 240.532 200.306L202.084 302.935C201.921 303.413 201.653 303.855 201.295 304.236C200.936 304.616 200.496 304.926 200.001 305.146C199.505 305.367 198.965 305.493 198.414 305.517C197.863 305.542 197.312 305.464 196.795 305.289L183.902 300.912C183.202 300.676 182.588 300.27 182.128 299.737C181.668 299.205 181.381 298.568 181.297 297.896C175.497 252.153 226.077 136.692 226.589 135.531L226.73 135.21L272.838 144.443L272.934 144.538C291.33 162.706 306.45 277.293 309.295 300.079C309.401 300.903 309.194 301.734 308.708 302.436C308.222 303.138 307.487 303.67 306.623 303.943L295.243 307.587C294.813 307.725 294.36 307.795 293.904 307.795Z" fill="#2F2E41"/>
<path d="M254.177 148.16C243.006 148.16 230.552 146.143 226.718 137.821L226.63 137.63L226.749 137.452C229.775 132.958 233.774 125.29 231.625 123.851C227.39 121.017 225.335 116.354 225.518 109.992C225.914 96.1809 236.308 83.919 251.384 79.4796C255.592 78.2604 259.874 77.2623 264.209 76.4901C267.369 75.9128 270.632 75.9763 273.762 76.6761C276.892 77.3758 279.812 78.6945 282.312 80.5373C284.844 82.3922 286.89 84.7316 288.304 87.3877C289.719 90.0437 290.465 92.9503 290.491 95.8987C290.649 110.658 288.139 131.214 275.284 145.327C274.681 145.982 273.843 146.424 272.916 146.574C266.732 147.587 260.462 148.117 254.177 148.16Z" fill="#CCCCCC"/>
<path d="M250.022 147.607C250.63 145.633 252.074 143.956 254.04 142.94C256.006 141.924 258.336 141.652 260.523 142.182C260.969 142.295 261.405 142.441 261.825 142.619L276.2 130.775L286.197 136.873L265.64 153.342C264.712 154.857 263.25 156.047 261.488 156.724C259.727 157.4 257.765 157.524 255.917 157.075C254.84 156.808 253.832 156.351 252.952 155.73C252.072 155.108 251.336 154.335 250.788 153.454C250.24 152.574 249.89 151.604 249.758 150.6C249.627 149.597 249.716 148.579 250.022 147.607Z" fill="#FFB8B8"/>
<path d="M273.923 147.758C272.99 147.758 272.086 147.466 271.364 146.931L265.695 142.737C265.223 142.388 264.844 141.946 264.587 141.445C264.329 140.944 264.201 140.397 264.21 139.844C264.219 139.292 264.367 138.749 264.641 138.255C264.915 137.761 265.309 137.33 265.794 136.994L289.57 120.486C289.852 120.289 290.036 120 290.084 119.68C290.132 119.361 290.039 119.038 289.825 118.78L275.149 101.217C273.444 99.1828 272.589 96.6684 272.735 94.1187C272.881 91.5689 274.019 89.1481 275.947 87.2849C277.978 85.2993 280.759 84.0775 283.739 83.8617C286.718 83.646 289.678 84.4521 292.032 86.1202L292.125 86.2089L307.449 106.073C309.106 107.25 310.44 108.757 311.348 110.477C312.255 112.197 312.711 114.084 312.679 115.99C312.648 117.896 312.13 119.77 311.167 121.465C310.203 123.16 308.82 124.63 307.125 125.761L276.332 147.039C275.634 147.506 274.79 147.758 273.923 147.758Z" fill="#CCCCCC"/>
<path d="M242.751 46.4271V36.5071L262.313 28.7738L280.967 36.5071V46.4271C280.967 46.8589 280.777 47.273 280.44 47.5784C280.103 47.8837 279.645 48.0552 279.168 48.0552H244.549C244.072 48.0552 243.615 47.8837 243.278 47.5784C242.94 47.273 242.751 46.8589 242.751 46.4271Z" fill="#2F2E41"/>
<path d="M261.415 22.7114C258.539 14.3769 264.58 4.82507 273.51 1.52604C282.441 -1.773 293.125 0.53313 300.66 5.98363C308.196 11.4341 312.871 19.5979 315.348 28.0369C317.826 36.4759 318.296 45.2757 318.753 53.9977C329.725 55.8223 337.189 67.6038 333.388 77.0988C329.587 86.5938 315.519 91.3109 305.803 86.3482C296.087 81.3854 293.273 68.0448 300.285 60.1901C303.603 56.4734 305.456 51.8608 305.552 47.0829C305.647 42.3049 303.979 37.6347 300.811 33.812C297.644 29.9892 293.158 27.2325 288.065 25.9783C282.971 24.7241 277.561 25.0443 272.691 26.888C267.283 28.9352 260.498 23.616 261.415 22.7114Z" fill="#2F2E41"/>
<path d="M138.129 82.2854C124.992 82.2073 112.02 79.6352 100.05 74.7352C99.3371 74.4478 98.7323 73.9789 98.309 73.3857C97.8856 72.7925 97.6619 72.1007 97.6652 71.3944V41.7488C97.6664 40.7776 98.0931 39.8465 98.8516 39.1597C99.6102 38.473 100.639 38.0867 101.712 38.0856H174.546C175.619 38.0867 176.648 38.473 177.406 39.1597C178.165 39.8465 178.591 40.7776 178.593 41.7488V71.3945C178.596 72.1007 178.372 72.7925 177.949 73.3857C177.525 73.9789 176.921 74.4478 176.208 74.7353C164.238 79.6352 151.266 82.2073 138.129 82.2854Z" fill="white"/>
<path d="M138.119 58.2688C137.579 58.2693 137.044 58.172 136.546 57.9826L78.7896 35.9225C78.0447 35.638 77.4111 35.1581 76.9704 34.5446C76.5296 33.9312 76.302 33.2122 76.3168 32.4805C76.3316 31.7488 76.5882 31.0379 77.0535 30.4394C77.5188 29.841 78.1714 29.3824 78.9272 29.1228L136.685 9.28653C137.615 8.96557 138.644 8.96755 139.572 9.2921L196.556 29.1283C197.308 29.39 197.956 29.8487 198.418 30.4457C198.88 31.0428 199.135 31.751 199.15 32.4798C199.164 33.2086 198.939 33.9249 198.502 34.537C198.064 35.1491 197.435 35.6291 196.695 35.9157L139.71 57.9755C139.207 58.1695 138.666 58.2693 138.119 58.2688Z" fill="white"/>
<path d="M104.409 76.7525C107.389 76.7525 109.804 74.5657 109.804 71.8682C109.804 69.1707 107.389 66.984 104.409 66.984C101.429 66.984 99.0139 69.1707 99.0139 71.8682C99.0139 74.5657 101.429 76.7525 104.409 76.7525Z" fill="#3F3D56"/>
<path opacity="0.2" d="M196.892 32.7844L139.907 54.8442C139.463 55.0162 138.985 55.1054 138.502 55.1065C138.018 55.1075 137.54 55.0204 137.095 54.8504L79.3379 32.7909C78.6126 32.5205 78.0075 32.039 77.6181 31.4224C77.3635 31.8222 77.2057 32.2665 77.1552 32.7257C77.1047 33.185 77.1627 33.6487 77.3254 34.0861C77.488 34.5235 77.7516 34.9245 78.0986 35.2626C78.4456 35.6007 78.868 35.8681 79.3379 36.0471L137.095 58.1066C137.54 58.2766 138.018 58.3637 138.502 58.3626C138.985 58.3616 139.463 58.2724 139.907 58.1004L196.892 36.0406C197.359 35.8601 197.779 35.5918 198.124 35.2536C198.468 34.9153 198.73 34.5148 198.891 34.0783C199.052 33.6419 199.109 33.1795 199.058 32.7217C199.007 32.2638 198.849 31.821 198.595 31.4224C198.209 32.034 197.61 32.5128 196.892 32.7844Z" fill="black"/>
<path d="M104.862 71.8491C105.101 71.8491 105.33 71.7634 105.498 71.6107C105.667 71.458 105.762 71.251 105.762 71.0351V43.7962L135.418 34.0154C135.657 34.0186 135.887 33.9359 136.058 33.7855C136.229 33.6351 136.327 33.4294 136.331 33.2135C136.334 32.9976 136.243 32.7892 136.077 32.6343C135.911 32.4794 135.683 32.3905 135.445 32.3873L105.788 42.1681C105.55 42.1631 105.312 42.2021 105.091 42.2825C104.869 42.363 104.668 42.4834 104.5 42.6363C104.329 42.7874 104.194 42.9679 104.102 43.1671C104.01 43.3663 103.963 43.5802 103.963 43.7962V71.0351C103.963 71.251 104.058 71.458 104.227 71.6107C104.395 71.7633 104.624 71.8491 104.862 71.8491Z" fill="#3F3D56"/>
</svg>
