<svg width="266" height="280" viewBox="0 0 266 280" fill="none" xmlns="http://www.w3.org/2000/svg">
<path d="M237 57L239.5 54C244.3 47.2 245.167 42.5 245 41C245.333 37.3333 245.5 29.9 243.5 29.5C241.5 29.1 227.667 37 221 41C223.333 37.6667 228.6 29.9 231 25.5C233.4 21.1 232.667 20 232 20C227.6 18 204.167 28.1667 193 33.5C191 32 199 18 204.5 13C208.9 9 208.333 7.33333 207.5 7C181.1 -1.4 161.5 11.5 155 19C163 4.6 162.667 1.66667 161.5 2C147.1 2.8 135.5 16.6667 131.5 23.5C125.1 14.7 120.167 11.5 118.5 11C117.7 8.6 96.5 8 86 8C80.8 4 74.1667 1.66667 71.5 1C66.7 5 73.5 17 77.5 22.5C68.3 25.3 49.6667 18.3333 41.5 14.5C36.3 20.1 44 32.8333 48.5 38.5C46.1 42.1 26.8333 37 17.5 34C15.9 35.6 16.8333 41 17.5 43.5C17.1 45.5 23.6667 56 27 61M237 57C246.667 60 265.8 74 265 106C259.5 105.5 248.4 104.3 248 103.5C247.5 102.5 255.5 111.5 265 141C264.167 141.667 261.6 142.6 258 141L251.5 135.5C253.833 151.5 256.6 185.1 249 191.5C247.167 190.333 243 186.7 241 181.5C236.667 199 226.8 234.1 222 234.5C218.833 230.333 212.7 221.7 213.5 220.5C212 228.833 201.8 248.5 173 260.5C172.5 257.5 172.1 250.6 174.5 247L145 269C143.167 272.333 139 278.9 137 278.5C135 278.1 126.5 269.333 122.5 265L100.5 253C101.333 256 102.5 261.9 100.5 261.5C98.5 261.5 93 260.4 87 256C81 251.6 72.5 237.833 69 231.5C68.8333 233.833 68.1 239 66.5 241C64.5 243.5 40.5 221 41.5 219L33 201C30.3333 204.167 24.3 209.8 21.5 207C20.3333 197.167 17.6 177.3 16 176.5C15.6667 169.667 15.4 156.1 17 156.5C13.5 160.5 6 168.2 4 167C0.833333 157.667 -1.2 132.6 16 107C11.3333 108.5 1.8 111.1 1 109.5C1.16667 99.8333 2.5 79.9 6.5 77.5C9.16667 72.5 17 62.2 27 61M237 57L230.5 64M27 61L32.5 66M32.5 66C29 68.8333 23.6 76.9 30 86.5C38 98.5 45 105 46 105.5M32.5 66C47.7 52 67.5 65.8333 75.5 74.5M46 105.5C47 106 20.5 147.5 97 190M46 105.5C46.8824 103.41 48.3214 100.606 50.2844 97.5M97 190C95 169.5 100 127.6 136 124C147.922 123.667 171.912 135.7 172.5 186.5M97 190C98.2 223.2 124.167 229.167 137 228C166.2 226 172.833 199.5 172.5 186.5M172.5 186.5C225.7 164.5 226.667 123 220.5 105M230.5 64C238.5 69.6667 247.7 85.8 220.5 105M230.5 64C225.667 60 210.8 56 190 72M220.5 105C219.401 101.45 217.762 98.1053 215.785 95M190 72C181 66.8333 157.7 61.4 136.5 81C129 72.8333 106.3 60.1 75.5 74.5M190 72C192.71 73.355 196.487 75.6511 200.5 78.7482M75.5 74.5C72.0676 75.9588 68.896 77.8731 66 80.0545M66 80.0545C61.5 76.0364 50.4 69.4 42 75C38.523 77.1667 35.312 84.7 50.2844 97.5M66 80.0545C59.1582 85.2081 53.8546 91.852 50.2844 97.5M215.785 95C221.523 91.1667 231.5 81.6 225.5 74C222.833 70.9988 214.1 67.7467 200.5 78.7482M215.785 95C211.574 88.3882 205.829 82.8617 200.5 78.7482M135.5 182.5C133.718 186.226 128.87 188.382 123 189.541C117.667 189.861 107.3 188.9 108.5 182.5C114.5 182.167 127.1 180.2 129.5 175C123.5 171.667 111.4 160.9 111 144.5C116.333 143.167 128.5 141 134.5 143C140.667 141.833 154 140.1 158 142.5C158.667 148.833 156.3 164.2 141.5 175C144.167 177.745 152.2 183.388 163 184C162.667 185.667 160.7 189.251 155.5 190.251C144.217 190.633 137.723 185.893 135.5 182.5ZM172 97C165 95 154 112.5 172.5 117C181 118.5 190.5 100 172 97ZM97 95.5C89 95.5 78.5 110.5 97 116C116 112.5 106.5 93.5 97 95.5Z" stroke="black"/>
</svg>
