<svg width="1352" height="2953" viewBox="0 0 1352 2953" fill="none" xmlns="http://www.w3.org/2000/svg">
<path d="M680 0.5C497.43 213.14 315.5 241 212.5 545C109.5 849 1212.5 766.5 1059 581C905.5 395.5 371.5 929.5 194 939C16.5 948.5 7 1086.5 7 1086.5L6.3766 1087.36M7 1102C7 1102 0.499999 1103 0.5 1095.5C0.500001 1088 2.5 1087.36 6.3766 1087.36M7 1102C18 1101 13 1097.5 13 1095.5C13 1093.5 13 1088 6.3766 1087.36M7 1102L20.5 1452H1299.5L1343 1690.5M1343 1690.5L1325.5 1703L1343 1721M1343 1690.5L1350.5 1708.5L1343 1721M1343 1721L1325.5 2000.5L169 2014L65 2221M65 2221L46 2244.5L65 2269.5M65 2221L86.5 2244.5L65 2269.5M65 2269.5V2893H820.5L892 2900.5M892 2900.5L820.5 2848L773.5 2910.5C788.667 2923.5 820.4 2950 826 2952C831.6 2954 872.333 2918.5 892 2900.5Z" stroke="black"/>
</svg>
