<svg width="23" height="3000" viewBox="0 0 23 3000" fill="none" xmlns="http://www.w3.org/2000/svg">
<path d="M12 0L11.5004 325.765M11.5 343.5C9.50003 345.1 6.33337 345.5 5.00003 345.5C3.80003 345.1 4.50003 341 5.00003 339C3.00003 337.8 1.50003 334.833 1.00003 333.5C1.00003 332.7 5.33337 331.833 7.50003 331.5C7.50003 329.9 10.1667 327.167 11.5 326L11.5004 325.765M11.5 343.5C13.3334 344.5 17.1 346.3 17.5 345.5C18 344.333 18.7 341.4 17.5 339C19 337.667 21.9 334.7 21.5 333.5C21.1 332.3 17.3334 331.667 15.5 331.5C14.3336 329.51 11.9007 325.576 11.5004 325.765M11.5 343.5V658M11.5 658C10.5 658.667 8.30003 660.7 7.50003 663.5C5.6667 663.5 1.80003 663.9 1.00003 665.5C0.833366 666 1.40003 667.8 5.00003 671C4.50004 672.667 3.80004 676.3 5.00003 677.5C6.50003 677.333 9.80002 676.7 11 675.5M11.5 658C12.7 658 14.3334 661.667 15 663.5C19.8 663.9 21.3334 665 21.5 665.5C22.3 666.7 19.1667 669.667 17.5 671C18.7 675 18 677 17.5 677.5C16.3 678.3 12.6667 676.5 11 675.5M11 675.5V971M11 971C10.1667 971.5 8.20002 973.3 7.00002 976.5C5.33336 976.5 1.80002 976.9 1.00002 978.5C2.14875e-05 980.5 5.50002 984 5.00002 984C4.50002 984 3.50001 990 5.00002 990.5C6.50003 991 11 989 11.5 988.5M11 971C12.2 971 14.1667 974.333 15 976C20.8693 976.8 21.7789 978 21.5 978.5C22.3 979.7 19.1667 982.667 17.5 984C18.3 987.6 17.8334 989.833 17.5 990.5C16.7 991.7 13.1667 989.667 11.5 988.5M11.5 988.5V1245M11.5 1245C10.3334 1245.5 7.90003 1247.3 7.50003 1250.5C5.83336 1250.5 2.20003 1250.9 1.00003 1252.5C0.833362 1253 1.40003 1254.7 5.00003 1257.5C4.50003 1259.33 3.80003 1263.3 5.00003 1264.5C6.33336 1264.5 9.50003 1264 11.5 1262M11.5 1245C13.1 1245 14.5 1248.33 15 1250C19.5 1251 20.5 1251 21.5 1252.5C22.3 1253.7 19.1667 1256.67 17.5 1258C19.1 1261.6 18.1667 1263.83 17.5 1264.5C16.7 1265.7 13.1667 1263.33 11.5 1262M11.5 1262V1579M11.5 1579C10.5 1579.33 8.30003 1580.9 7.50003 1584.5C5.83336 1584.5 2.20003 1584.9 1.00003 1586.5C-0.499971 1588.5 2.50003 1589 5.00003 1592C4.33337 1593.83 3.40005 1597.7 5.00003 1598.5C6.60001 1599.3 10 1597.5 11.5 1596.5M11.5 1579C12.7001 1579 14.6667 1582.67 15.5 1584.5C17.1667 1584.83 20.7 1585.7 21.5 1586.5C22.3 1587.3 19.1667 1590.5 17.5 1592C18.1667 1593.83 19.1 1597.7 17.5 1598.5C15.9 1599.3 12.8334 1597.5 11.5 1596.5M11.5 1596.5V3000" stroke="black"/>
</svg>
