<svg width="51" height="3000" viewBox="0 0 51 3000" fill="none" xmlns="http://www.w3.org/2000/svg">
<path d="M26 -0.5V662C6.12882 664.983 2.38564 670.455 5.99998 685.5C13.6708 706.746 33.5 699 40.5 706C47.5 713 7.33751 712.903 7.49998 728.5C7.66131 743.988 42.4211 735.131 40.5 750.5C38.7128 764.797 8.82689 752.653 7.49998 767C6.1028 782.107 40.1719 772.332 40.5 787.5C40.7225 797.787 26.5 803.5 26 809.5C25.5 815.5 26 954.25 26 1047C26 1047 5.02035 1052.71 3.49998 1063.5C1.46387 1077.95 38.2259 1064.43 37.5 1079C36.7893 1093.27 4.8889 1078.28 3.49998 1092.5C2.04814 1107.36 36.3371 1095.11 37.5 1110C38.7153 1125.56 0.972214 1115.6 3.49998 1131C5.82578 1145.17 35.4973 1130.78 37.5 1145C38.8521 1154.6 34 1161 26 1167C18 1173 29.5 1369.5 26 1371.5C22.5 1373.5 4.85715 1378.33 3.49998 1389.5C1.61461 1405.02 40.2816 1387.88 41 1403.5C41.7317 1419.41 4.03081 1403.59 3.49998 1419.5C2.96119 1435.65 40.307 1420.85 41 1437C41.7078 1453.49 4.34207 1440.02 3.49998 1456.5C2.63378 1473.46 40.3176 1461.53 41 1478.5C41.4509 1489.71 31.0887 1493 26 1503C-3.40532 1560.77 26 1669 26 1669C26 1669 4.73932 1674.43 1.49998 1685.5C-3.55093 1702.76 45.6178 1684.05 44.5 1702C43.4062 1719.57 3.12104 1697.97 1.49998 1715.5C-0.17669 1733.63 44.8631 1715.3 44.5 1733.5C44.1397 1751.55 4.13002 1732.64 1.49998 1750.5C-0.725252 1765.62 17.5187 1768.29 26 1781C79.4391 1861.07 26 2027.5 26 2027.5C26 2027.5 7.25024 2033.76 3.99998 2044C-1.59291 2061.61 46.3357 2038.79 49.5 2057C52.8795 2076.45 2.59541 2059.31 3.99998 2079C5.34471 2097.85 50.1709 2079.18 48.5 2098C46.8838 2116.21 4.51135 2094.23 3.99998 2112.5C3.47821 2131.14 45.6172 2108.76 49.5 2127C52.7939 2142.47 33.4013 2146.02 26 2160C-0.307901 2209.7 26 2304 26 2304C26 2304 5.19503 2310.12 3.49998 2321C1.09548 2336.44 40.0671 2317.94 41.5 2333.5C42.9839 2349.61 2.77025 2333.84 3.49998 2350C4.2164 2365.87 40.6088 2348.64 41.5 2364.5C42.4121 2380.73 1.83062 2365.33 3.49998 2381.5C5.10413 2397.04 38.3891 2378.69 41.5 2394C43.8874 2405.75 26 2420.5 26 2420.5V2999.5" stroke="black"/>
</svg>
